<svg width="1482" height="1788" viewBox="0 0 1482 1788" fill="none" xmlns="http://www.w3.org/2000/svg">
<g id="Acorn">
<path id="BodyAndPole" fill-rule="evenodd" clip-rule="evenodd" d="M460 1530V1398L664 1394C672.46 1329.24 706.1 1201 696 1142L636 1140C646.16 1115.42 681.544 1011.82 700 1004C705.698 1014.2 736.496 1010.72 752 1010C753.333 988.667 754.667 967.333 756 946C660.742 946.924 641.046 875.634 620 802C615 784.532 599.2 741.044 606 724C595.924 699.086 561.478 673.292 582 634C649.266 632.92 698.97 661.8 738 690H740C739.73 623.824 767.116 506.988 764 496C773.824 494.63 771.342 495.558 776 490C773.07 482.672 771.478 484.694 776 478C825.032 505.73 774.368 534.53 760 558C748.462 576.848 744.614 684.378 752 714C794.344 714.07 827.8 729.134 860 740C860.667 585.348 861.333 430.681 862 276C868.554 233.782 848.8 184.08 866 156C885 124.984 943.164 87.716 994 108C1015.38 116.532 1056.28 146.8 1064 168V466C1063.33 845.296 1062.67 1224.63 1062 1604C1074.33 1604.42 1240.06 1632.2 1244 1636V1644H1238C1227.03 1623.35 1138.52 1633.2 1108 1626L1074 1612C1032.09 1603.55 992.66 1622.4 956 1628C926.38 1632.53 905.48 1620.31 886 1616C844.228 1606.75 811.39 1631.56 782 1640V1630H786C808.386 1619.3 833.7 1609.79 862 1608V1602C848.174 1547.34 869.12 1466.91 852 1420C862.828 1416.45 863.866 1387.2 858 1376V1088C848.667 1200.66 839.333 1313.32 830 1426L752 1600L460 1596C458.667 1575.33 457.333 1554.67 456 1534C447.524 1533.38 448.072 1534.12 444 1530H460ZM758 1010C787.4 1009.46 836.024 1003.83 858 1014L862 1012C862.254 996.8 860.55 924.234 858 926L852 924C852.028 930.324 852.046 927.776 850 930L840 928C842.466 939.57 851.3 944.834 846 952H844L832 926H828L836 952H834C830.667 946 827.333 940 824 934L818 936V938L826 954H824L818 950L806 926L800 928L796 934L816 976H814C801.71 966.1 796.36 949.772 790 934L784 936L798 970H796L790 966C786.667 957.333 783.333 948.667 780 940L762 944C760.667 966 759.333 988 758 1010Z" fill="black"/>
<path id="GrassTwo" fill-rule="evenodd" clip-rule="evenodd" d="M1070 1450H1078C1077.33 1452.67 1076.67 1455.33 1076 1458C1041.06 1469.62 1015.82 1520.69 1006 1558H1008C1041.63 1531.69 1062.83 1481.03 1112 1472C1112.67 1473.33 1113.33 1474.67 1114 1476L1090 1490C1092.29 1508.92 1066.91 1510.87 1062 1534C1089.05 1513.4 1109.58 1488.63 1140 1470L1144 1474L1138 1482C1091.88 1498.35 1054.51 1551 1034 1594L1030 1592V1578C1039.47 1559.68 1048.78 1550.97 1056 1528L1054 1526C1038.59 1537.1 1027.62 1569.47 1018 1574C1017.33 1570.67 1016.67 1567.33 1016 1564L1008 1570C995.8 1593.95 995.026 1597.53 1004 1624L1000 1626C988.822 1617.88 983.492 1608 982 1590C993.282 1577 997.234 1555.47 1004 1538L1002 1536L972 1572C968.136 1584.49 978.186 1594.14 972 1604L964 1588L960 1590C958.667 1594.67 957.333 1599.33 956 1604C962.966 1607.66 961.376 1605.69 964 1614L954 1610C948.748 1604.36 951.474 1595.91 950 1590L946 1592L938 1616C928.332 1613.05 917.332 1610.51 910 1606C907 1596.04 906.442 1596.28 898 1592L892 1598C888.3 1592.96 891.504 1587.46 888 1580C879.432 1561.77 851.35 1559.95 836 1548L840 1544L868 1548C862.052 1529.12 843.57 1525.05 832 1512L836 1508C863.708 1522.97 875.694 1554.91 902 1568L904 1564C909.542 1536.97 901.444 1513.4 896 1494C916.276 1501.05 908.932 1521.96 916 1542L920 1540L926 1512C932.77 1517.17 934.986 1521.79 938 1510L966 1492L968 1494L950 1514L958 1528L972 1516L980 1496C990.708 1501.95 993.662 1497.33 1002 1486L1014 1482C1003.58 1513.2 971.082 1515 968 1560H970L978 1554C995.444 1515.51 1037.95 1475.66 1070 1450ZM942 1520L932 1534C932.667 1540.67 933.333 1547.33 934 1554L952 1534V1528L942 1520ZM954 1542C943.912 1555.15 937.676 1560.86 938 1586L940 1590L944 1588C949.786 1570.93 959.644 1561.75 958 1542H954ZM924 1544L914 1558C914.667 1572 915.333 1586 916 1600L920 1606L932 1608L934 1604C930.4 1589.37 933.518 1554.09 924 1544Z" fill="#4CAD1F"/>
<path id="BackArm" fill-rule="evenodd" clip-rule="evenodd" d="M694 1130H706V1136C677.756 1183.12 619.014 1205.85 608 1266L602 1268L582 1260C582.264 1247.33 584.442 1238.83 590 1232C605.098 1238.27 607.846 1232 618 1224C633.86 1188.48 685.6 1166.17 694 1130Z" fill="black"/>
<path id="ArmFront" fill-rule="evenodd" clip-rule="evenodd" d="M760 1130H768V1138L700 1222C679.958 1252 649.66 1329.02 622 1346L600 1340C600.014 1325.32 602.508 1323.76 608 1316L634 1312L696 1210L760 1130Z" fill="black"/>
<path id="LegOne" fill-rule="evenodd" clip-rule="evenodd" d="M318 1346H324C380.86 1385.94 407.744 1451.33 466 1492V1494C461.754 1496.6 463.106 1496.46 456 1498C399.16 1466.96 378.096 1401.72 328 1364C349.386 1419.46 357 1489.17 380 1546C387.872 1565.44 404.838 1569.71 408 1594L404 1598L388 1596L380 1592C371.093 1544.12 359.745 1496.72 346 1450C337.4 1421.45 309.822 1379.64 318 1346Z" fill="black"/>
<path id="LegTwo" fill-rule="evenodd" clip-rule="evenodd" d="M320 1446L466 1498L468 1506C467.333 1507.33 466.667 1508.67 466 1510H460L328 1458L204 1618L176 1626L162 1604L164 1600C226.164 1584.14 290.444 1501.27 320 1446Z" fill="black"/>
<path id="OrangeGlow" fill-rule="evenodd" clip-rule="evenodd" d="M994 120C1024 123.814 1063.32 222.64 1048 244L1046 242C1041.06 199.6 1007.05 132.044 966 146C968.542 134.168 971.08 133.22 984 132C1001.65 144.782 1012.79 164.81 1030 176H1032C1025.32 148 1004.12 140.692 994 120ZM946 164C968.506 168.614 983.868 194.478 996 210C994.712 217.27 995.2 216.054 992 220L954 172C941.084 166.212 943.822 178.34 936 168L946 164ZM888 182C900.676 183.032 902.682 181.586 916 184L970 240V246L966 248L962 246C958.224 224.632 927.352 201.23 912 190H904C915.544 204.88 930.456 212.87 932 238L928 242C914.86 223.89 906.54 206.43 894 190L884 194V188L888 182ZM1004 260L1016 268C1021.15 283.324 1030.87 302.8 1026 322H1024L1022 320C1019.72 292.8 1009.69 279.376 1000 262L1004 260ZM922 272H928C941.642 283.66 958.852 306.868 962 328H960L954 324L922 272ZM1032 340C1041 342.644 1040.66 344.6 1046 350C1045.33 358.667 1044.67 367.333 1044 376C1042.67 378.667 1041.33 381.333 1040 384L1036 380C1040.56 364.714 1035.4 351.388 1032 340ZM1022 422C1034.2 422.664 1038.56 425.492 1046 430C1052.49 448.974 1068.35 458.658 1066 480L1058 476C1061 450.562 1032.02 439.6 1022 422ZM616 646C627.362 649.328 627.96 653.874 632 664L624 666C625.333 674 626.667 682 628 690H622C620.046 686.51 620.55 686.918 618 690C607.052 688.388 605 687.974 602 678L618 674L614 668L608 664C611.762 654.964 608.74 655.388 616 646ZM622 764H628V776H622L618 772L622 764ZM866 766H878L882 770C882.142 825.814 920.2 845.944 924 898L918 902H912V900C923.514 878.18 898.774 854.14 886 838C891.254 834.746 887.644 835.678 894 836C886.686 811.909 877.318 788.489 866 766ZM628 780L636 784L634 790H626L628 780ZM634 806H638C634.51 807.954 637.56 807.824 634 806ZM878 880L888 884L928 1020L924 1022H922C907.333 974.667 892.667 927.333 878 880ZM898 1010H904C917.172 1020.84 931.586 1052 936 1070L934 1074H922V1072L928 1066C918 1047.33 908 1028.67 898 1010ZM698 1030L706 1034C705.333 1037.33 704.667 1040.67 704 1044H702L694 1036L698 1030ZM696 1056H702C699.718 1064.05 699.252 1063.65 694 1068L688 1066V1064L696 1056ZM912 1070C918.4 1073.24 920.378 1073.7 924 1080C932.2 1099.38 920.642 1120.47 922 1136C925.333 1148 928.667 1160 932 1172L930 1174C922.73 1172.71 923.946 1173.2 920 1170C928.246 1133.1 896.694 1106.6 888 1082C903.308 1086.24 915.266 1100.92 918 1118H922V1102C917.188 1089.94 910.556 1075.25 912 1070ZM684 1072L692 1078L688 1088H682C682.667 1082.67 683.333 1077.33 684 1072ZM680 1096L688 1100V1102L682 1106C678.43 1100.8 678.8 1102.78 680 1096ZM876 1122L882 1124C894.102 1166.86 910.848 1182.56 936 1210V1224H930L926 1218V1230C935.56 1249.08 954.758 1277.42 948 1304H946L944 1302C942.374 1270.69 924.146 1254.57 918 1230V1204C907.86 1177.57 872.294 1159 876 1122ZM698 1202L706 1206L692 1226L688 1222L698 1202ZM692 1238L700 1242V1302H698L696 1300C695.934 1279.27 694.598 1258.57 692 1238V1238ZM896 1254C919.466 1266.24 954.33 1372.22 954 1406H948C946.346 1362.51 912.864 1342.86 902 1312C917.88 1316.65 921.508 1328.72 934 1336C928.124 1305.64 892.8 1280.05 896 1254ZM694 1316H698L690 1342L686 1340V1330L694 1316ZM908 1356C921.314 1363.11 981.348 1479.11 978 1486L974 1484C961.566 1449.71 906.784 1385.45 908 1356ZM606 1398H618L624 1404V1410L622 1412C610.222 1404.53 609.104 1409.2 594 1406V1404L606 1398ZM574 1402H590V1408H574V1402ZM652 1402H664L674 1412L670 1416C656.632 1408.49 663.8 1411.43 646 1414V1412C649.222 1407.45 649.62 1408.46 652 1402ZM914 1414C941.184 1423.15 963.098 1478.1 964 1512H958C954.942 1470.6 925.48 1444.78 914 1414ZM934 1534L920 1532L918 1528C923.588 1524.31 918.274 1526.56 926 1526L894 1452H896L906 1460C913.53 1487.26 931.64 1501.85 934 1534ZM476 1492C486.904 1493.02 484.742 1491.18 488 1500C476.662 1498.15 478.142 1497.33 476 1492ZM890 1508C904.934 1515.36 914.906 1547.37 918 1566L910 1568C916.11 1579.4 921.982 1587.33 920 1602H918L914 1600C911.912 1566.52 887.4 1561.59 870 1544V1542C890.314 1544.9 895.2 1556.73 910 1564L890 1508ZM982 1518C1005.27 1520.34 1045.67 1531.15 1050 1560H1044C1038.09 1546.28 1025.17 1538.43 1012 1532H1010V1534L1026 1560C1014.87 1556.4 987.076 1528.1 982 1518ZM496 1522H504C500.538 1531.03 495.442 1531.74 488 1536L484 1532C484.667 1530.67 485.333 1529.33 486 1528L496 1522ZM1066 1522L1088 1532C1087.33 1533.33 1086.67 1534.67 1086 1536C1075.42 1534.91 1067.93 1531.66 1062 1526L1066 1522ZM490 1550L508 1556C507.333 1557.33 506.667 1558.67 506 1560H498C492.218 1554.11 491.73 1555.78 490 1550ZM524 1556C536.342 1555.95 537.94 1557.08 544 1562L540 1566L524 1560V1556ZM558 1570C566.06 1570.8 565.824 1570.65 570 1574V1576H558V1570ZM622 1572L642 1574V1582C633.066 1581.27 617.656 1580.4 612 1576V1574L622 1572ZM598 1576C607 1578.77 605.2 1577.03 608 1586H588V1584L598 1576ZM652 1576L676 1578V1586H674L650 1582L652 1576ZM686 1580L714 1590L712 1594C696.986 1593.65 688.128 1587.25 686 1580ZM730 1580C736.054 1583.86 733.238 1580.4 736 1588C728.824 1592.96 727.332 1595.57 718 1594L722 1588L730 1580Z" fill="#FFD775"/>
<path id="YellowGlow" fill-rule="evenodd" clip-rule="evenodd" d="M954 112C968.698 114.77 973.97 113.786 984 116C1001.28 123.904 1014 144.962 1018 166H1008L1004 164C1002.2 144.946 969.684 126.326 952 116L954 112ZM906 126C939.982 125.258 952.374 131.558 976 140V148L944 134V136L948 146H946C932.687 139.014 918.587 133.643 904 130L906 126ZM892 146C914.668 145.52 918.66 151.544 932 158V166C924.372 163.83 899.636 155.778 892 150V146ZM868 166H884L912 190L908 194C895.086 187.634 876.218 179.366 864 170V168L868 166ZM866 194C893.12 195.738 910.952 220.914 926 236L922 240C911.872 236.6 865.8 198.178 866 194ZM1040 204L1048 208C1047.33 210 1046.67 212 1046 214L1040 210V204ZM930 208L944 210C963.072 218.626 988.262 244.376 994 266C971.416 258.2 958.908 226.546 938 214C931.388 216.746 929.418 217.63 922 216L926 210L930 208ZM1032 226C1043.73 229.584 1044.07 235.248 1050 244L1042 248C1038.67 240.667 1035.33 233.333 1032 226ZM998 236C1027.27 239.35 1034.78 287.33 1038 314H1030C1021.21 299.896 1017.31 280.6 1006 266L1008 262L1018 266V264C1012.33 250.97 1004 247.156 998 236ZM874 238C896.08 238.8 896.696 247.752 908 258C918.684 257.084 922.898 246.906 940 250L960 270V276L936 256L914 260C915.333 263.333 916.667 266.667 918 270H910C901.356 257.538 893.4 246.348 872 246L874 238ZM866 256C892.634 263.824 997.478 377.228 978 392C963.566 358.922 866.09 257.574 866 256ZM996 280C1019.26 287.728 1027.52 327.288 1040 346C1036.93 354.4 1040.37 350.896 1032 354C1027.65 326.346 999.728 299.75 996 280ZM868 300C889.944 308.568 894.8 322.268 912 334V342C897.072 337.346 875.886 314.692 864 304L868 300ZM996 324C1014.57 328.492 1031.43 356.134 1036 374L1034 376L1030 374L996 324ZM868 336C891.06 339.098 915.816 361.974 924 374L928 382L924 384C915.086 380.078 877.63 348.52 868 340V336ZM1002 356C1024.73 363 1047.03 403.446 1050 430H1040C1038.67 427.333 1037.33 424.667 1036 422H1042C1031.74 397.144 1009.89 379.432 1002 356ZM872 372C889.53 375.224 907.554 394.18 912 410H904C892.982 394.3 882.73 387.952 868 376L872 372ZM1004 396C1016.12 405.252 1027.52 428.168 1032 444H1024C1018.12 429.626 1002.78 409.61 1004 396ZM866 432H878L904 466C886.572 461.756 883.902 447.558 872 438C870.712 445.27 871.2 444.054 868 448L864 446C864.667 441.333 865.333 436.667 866 432ZM904 442H910C920.174 451 995.056 549.4 998 560L996 562L990 558C979.554 531.328 918.8 463.63 900 448L904 442ZM1006 442L1016 446C1019.33 457.333 1022.67 468.667 1026 480L1022 482H1020L1006 442ZM1006 488L1016 494C1021.55 518 1039.52 531.974 1044 548C1046.03 555.28 1043.16 572.236 1048 584L1044 588L1040 582C1026.56 549.834 1017.13 518.74 1002 490L1006 488ZM860 490C896.694 492.58 961 581.258 978 612V614H970C953 576.566 911.474 557.124 894 524C896.898 516.062 885.466 509.052 878 500C865.816 498.532 862.226 495.784 860 490ZM846 504L870 506L896 538L892 542C880.888 538.4 876.252 537.346 878 526C872.754 523.454 849.162 509.164 846 504ZM846 538C855.838 537.718 861.136 538.116 866 542C875.308 546.576 883 557.278 886 568H880L874 564C867.476 546.506 854.342 550.752 846 538ZM1018 578L1026 582C1027.33 591.333 1028.67 600.667 1030 610L1026 614H1024L1018 578ZM864 600C891.856 602.314 904.45 623.112 914 644L910 648L906 644L864 600ZM616 642C628.656 641.984 631.164 643.714 638 648L646 662C644.712 669.27 645.2 668.054 642 672H640C636.214 652.262 624.17 654.85 616 642ZM1008 644L1020 650L1038 696L1034 698L1008 644ZM596 652C607.372 651.53 609.906 650.6 614 658L604 660L608 672C598.948 670.282 602.05 672.232 598 666C597.333 661.333 596.667 656.667 596 652ZM872 654L888 656L928 710V712H920C901.152 694.142 892.18 673.45 870 658L872 654ZM582 670L616 682C617.828 693.57 621.88 695.9 618 702C611.182 697.582 603.664 697.328 598 692L582 670ZM630 670C636.074 673.886 632.088 670.656 634 676L630 670ZM874 686L894 690L928 740L924 744L914 736C910.926 713.262 883.468 704.63 874 686ZM1016 688C1023.43 694.744 1028.7 715.6 1020 726H1018V722C1017.33 710.667 1016.67 699.333 1016 688ZM624 694C637.276 696.138 640.86 702.174 642 716H636C632.448 705.626 625.342 700.054 624 694ZM1006 736C1018.5 746.724 1032.2 797.8 1030 814H1028L1024 812C1021.69 786.382 1002.89 760.438 1006 736ZM634 768H642L644 772V774L642 778H626L630 770L634 768ZM622 778L628 780C631.333 788.667 634.667 797.333 638 806H628L622 778ZM864 788C881.264 797.634 908.484 856.158 914 876L906 874C896.246 851.478 879.488 833.646 872 808L870 814L862 812C862.667 804 863.333 796 864 788ZM898 788H904L926 810L924 814H922C912.664 809.662 901.732 797.81 898 788ZM1006 812C1017.89 817.694 1022.5 832.49 1024 848H1018L1006 812ZM1020 856C1029.68 863.058 1046.15 894.112 1028 904C1027.78 881.824 1018.35 869.488 1020 856ZM898 888C913.326 887.2 920.298 888.642 924 900C914.494 898.536 902.574 894.92 898 888ZM874 904C897.37 904.506 917.428 916.134 926 932L924 936H916C906.316 921.672 896.422 912.016 872 912L874 904ZM870 936L886 938L908 966L906 970H900C895.031 958.445 886.659 948.678 876 942C869.388 944.746 867.418 945.63 860 944L870 936ZM872 986L892 988L916 1010L914 1014H912C899.352 1009.13 900.316 998.89 892 994C884.414 989.538 873.702 994.218 868 990V988L872 986ZM882 1024C920.88 1028.02 956.836 1095.2 968 1128C945.43 1119.94 928.118 1070.67 914 1052C904.416 1039.32 890.646 1037.79 878 1028L882 1024ZM706 1050H716V1058C711.29 1059.88 706.354 1063.92 700 1062V1060L706 1050ZM886 1056L902 1058C911.554 1062.63 916.456 1071.62 922 1080L918 1084L910 1078C903.922 1064.8 892.642 1066.84 886 1056ZM694 1060H698V1084C694.8 1091.33 695.694 1090.88 688 1094L694 1060ZM882 1096C908.386 1095.91 922.828 1111.01 934 1126L930 1130L900 1104C890.854 1100.36 884.076 1104.5 878 1100V1098L882 1096ZM680 1106L686 1110L684 1114H676L680 1106ZM656 1116C667.386 1118.36 664.872 1120.8 672 1126L670 1132H656L658 1126C657.333 1122.67 656.667 1119.33 656 1116ZM882 1134L908 1144C913.372 1160.43 952.946 1235.23 948 1244L944 1242C933.25 1212.09 917.25 1176.08 892 1160L894 1156L906 1160C900.258 1144.77 883.416 1144.57 882 1134ZM880 1204C898.226 1207.75 914.214 1223.45 924 1236L918 1242C908.15 1235.5 884.29 1215.18 880 1204ZM700 1208L710 1210C695.758 1230.01 700.032 1261.04 686 1280C682.4 1284.08 685.97 1281.41 680 1284C683.386 1250.3 686.524 1234.94 700 1208ZM866 1218C890.548 1222.56 956.22 1297.7 958 1326L954 1330H952C948.934 1287.22 885.242 1264.73 886 1254H900L898 1248C887.382 1243.3 870.366 1228.98 866 1218ZM682 1290C691.134 1296.97 690.678 1299.77 684 1308L680 1304C680.667 1299.33 681.333 1294.67 682 1290ZM666 1312L674 1316C673.76 1334.28 672.2 1367.27 666 1376L664 1372H660L666 1312ZM888 1316L912 1318C939.29 1347.78 980.6 1393.8 988 1440H986L980 1436C966.152 1390.66 933.334 1360.97 910 1324C899.448 1324.49 891.294 1324.2 886 1320L888 1316ZM872 1372L896 1382V1384H886C889.898 1403.06 905.382 1409.49 906 1426L904 1430C894.4 1421.9 891.338 1414.07 878 1420V1414L882 1410L892 1412L890 1406C881.752 1398.61 870.282 1376.46 872 1372ZM914 1376L940 1402L916 1384V1396L922 1406L906 1392C913.34 1387.88 911.428 1384.12 914 1376ZM896 1384L902 1388L896 1384ZM632 1392C642.226 1392.79 668.632 1394.4 676 1400V1402H672C659.926 1407.64 633.636 1402.35 626 1396L632 1392ZM562 1394L638 1408V1410L636 1414L562 1400V1394ZM942 1404L948 1412L942 1404ZM924 1408L932 1416L924 1408ZM932 1416L940 1428L934 1424L932 1416ZM954 1418L958 1424L954 1418ZM958 1424L960 1428L958 1424ZM960 1428L964 1434L960 1428ZM558 1430H564L562 1438H520V1432L558 1430ZM942 1430C945.333 1437.33 948.667 1444.67 952 1452L948 1450L942 1430ZM912 1438C947.482 1456.12 948.266 1494.35 960 1526C968.478 1548.87 1006.28 1558.1 1014 1584C996.4 1578.51 926.18 1508.28 920 1490C931.248 1500.18 940.456 1509.5 954 1518C944.424 1490.33 919.048 1464.37 912 1438ZM866 1456H888L906 1474C897.1 1480.15 918.876 1517.56 918 1536L906 1524C914.276 1514.54 894.214 1476.4 886 1468H866V1466L882 1460V1458L866 1456ZM500 1460H506V1468C500.622 1475.39 502.2 1478.5 492 1482L500 1460ZM906 1474L910 1480L906 1474ZM872 1500L878 1504L872 1500ZM888 1510L906 1524C899.018 1529.67 925 1568.69 926 1594H924C905.38 1574.42 909.558 1541.4 884 1522C881.8 1515.75 885.984 1517.93 888 1516V1510ZM506 1518L516 1520L514 1524C501.922 1526.74 492.02 1528.75 486 1538L482 1536V1534C482.667 1530.67 483.333 1527.33 484 1524L506 1518ZM924 1542L928 1548L924 1542ZM526 1544L530 1548L526 1554C506.614 1556.06 494.564 1560.13 484 1576L480 1574L482 1568C491.46 1549.07 508.29 1554.46 526 1544ZM928 1548L930 1552L928 1548ZM930 1552L932 1556L930 1552ZM706 1554C721.42 1552.82 728.314 1552.31 732 1564C719.674 1563.25 700.744 1565.42 696 1558L706 1554ZM932 1556L934 1560L932 1556ZM934 1560L938 1566L934 1560ZM694 1576C698.772 1580.94 697.46 1581.01 696 1588C681.03 1589.9 674.246 1598.67 664 1592C672.418 1585.33 686.922 1584.12 694 1576ZM620 1580C626.054 1583.86 623.238 1580.4 626 1588L624 1592L604 1596C608.096 1585.61 614.024 1587.62 620 1580Z" fill="#FFFF42"/>
<path id="DafodilFlower" fill-rule="evenodd" clip-rule="evenodd" d="M1178 1298H1188C1193.33 1312.82 1199.2 1315.18 1210 1324C1204.42 1332.84 1200.73 1339.06 1206 1350V1346L1218 1316C1231.42 1326.85 1217.84 1351.26 1212 1362C1223.47 1362.81 1233.36 1370.8 1244 1376V1382L1220 1394V1412H1214L1208 1400C1197.8 1404.4 1188.95 1415.8 1188 1430H1182L1174 1416C1165.91 1421.89 1160.37 1425.82 1148 1428L1146 1426C1146.67 1418 1147.33 1410 1148 1402L1134 1406C1133.33 1404 1132.67 1402 1132 1400L1144 1390C1143.33 1388.67 1142.67 1387.33 1142 1386C1134.74 1383.46 1131.75 1382.23 1128 1376L1132 1372L1154 1380C1144.17 1360.12 1133.75 1368.72 1142 1340H1144L1162 1348C1162.67 1346 1163.33 1344 1164 1342C1163 1331.84 1164.06 1315.23 1172 1308L1176 1310C1176.67 1320 1177.33 1330 1178 1340C1182.26 1334.86 1183.13 1335.03 1192 1334L1178 1298ZM1216 1376C1216.67 1377.33 1217.33 1378.67 1218 1380L1226 1376H1216ZM1192 1382C1195.9 1387.24 1194.96 1387.2 1202 1390C1200.67 1387.33 1199.33 1384.67 1198 1382H1192Z" fill="#FFF170"/>
<path id="DafodilStem" fill-rule="evenodd" clip-rule="evenodd" d="M1132 1398L1136 1402C1144.07 1400.07 1146.46 1397.39 1154 1400C1153.33 1401.33 1152.67 1402.67 1152 1404C1131.22 1410.89 1119.34 1426.05 1104 1438C1040.47 1487.49 1032.84 1511.02 1006 1598H1000L998 1596C1002.6 1484.77 1075.7 1456.08 1132 1398Z" fill="#556D34"/>
<path id="GrassDark" fill-rule="evenodd" clip-rule="evenodd" d="M916 1528C934.516 1531.2 926.614 1540.48 944 1540L950 1578H952C951.954 1556.38 960.51 1542.02 972 1532L978 1536C966.894 1573.21 971.228 1602.68 952 1628L946 1622C945.226 1618.07 941.2 1590.25 934 1582V1610L926 1616C919.172 1613.99 908.272 1612.87 902 1608L906 1602C918.652 1592.7 901.32 1574.57 896 1564H894C897.846 1575.05 903.294 1582.77 900 1596H894C887.364 1578.15 885.77 1553.5 880 1542L882 1538L892 1540L912 1574H914L908 1534C916.944 1531.39 912.018 1535.32 916 1528ZM1030 1528L1034 1530C1029.31 1551.55 1024.54 1568.42 1020 1594H1014V1584C1009.1 1589.53 1009.38 1607.62 1006 1614L1002 1606C994.814 1601.2 995.254 1594.34 996 1582L992 1584C991.892 1596.34 990 1602 984 1608L980 1602C982.667 1580.67 985.333 1559.33 988 1538L1000 1530L1006 1534L1016 1554L1030 1528ZM916 1536C921.444 1548.38 925.8 1562.12 936 1570L916 1536ZM1048 1536H1056C1056.67 1537.33 1057.33 1538.67 1058 1540C1044.29 1560.97 1038.22 1595.2 1024 1616H1018L1016 1614C1020.29 1589.26 1034.84 1554 1048 1536ZM998 1542C998.468 1554.35 1001.84 1567 1008 1574V1570L1010 1568L998 1542ZM862 1546C881.234 1558 883.666 1585.48 894 1606L890 1610H886L856 1568L860 1562L872 1572C866.672 1562.4 860.474 1556.98 862 1546ZM1074 1548L1082 1552C1071.26 1567.07 1062.03 1601.23 1048 1614L1044 1610L1062 1550C1071.22 1550.01 1068.03 1551.86 1074 1548ZM832 1562H838C847.458 1569.68 853.014 1579.69 854 1596L850 1600L846 1598L832 1562ZM960 1578C960.667 1582.67 961.333 1587.33 962 1592C961.333 1587.33 960.667 1582.67 960 1578Z" fill="#418121"/>
<path id="GrassOne" fill-rule="evenodd" clip-rule="evenodd" d="M932 1450H938C926.75 1487.11 886.704 1502.06 880 1548C901.548 1563.12 917.624 1583.63 922 1616H926C924.188 1575.96 925.8 1513.83 932 1476L936 1474L940 1476V1478C931.36 1515.2 928 1585.07 936 1628H944L950 1622C944.228 1603.08 960.338 1495.6 968 1492C968.667 1496.67 969.333 1501.33 970 1506L974 1504C978.572 1485.08 995.4 1463.53 1010 1454H1012V1462C988.966 1480.74 948.326 1543.8 970 1596L972 1592C1003.36 1549.25 1027.64 1501.29 1070 1470H1072V1478C1038.64 1503.2 993.712 1555 980 1598C990.494 1601.1 987.658 1602.94 996 1600C1007.53 1574.33 1142.01 1466.75 1186 1498C1185.33 1499.33 1184.67 1500.67 1184 1502C1123.01 1501.96 1070.13 1533.57 1042 1568V1570C1082.35 1559.3 1101.51 1536.2 1160 1536C1160.67 1537.33 1161.33 1538.67 1162 1540C1161.33 1541.33 1160.67 1542.67 1160 1544C1115.59 1542.55 1075.54 1553.89 1054 1576V1578H1056C1074.88 1570.2 1085.64 1563.58 1108 1562V1564C1107.33 1565.33 1106.67 1566.67 1106 1568C1081.66 1575.49 1043.64 1599.85 1028 1618L1034 1628C1033.33 1629.33 1032.67 1630.67 1032 1632C1022.95 1630.28 1026.05 1632.23 1022 1626C1017.6 1615.06 1023.04 1610.71 1028 1604C1038.8 1601.94 1043.77 1598.63 1048 1590C1030.69 1595.98 1014.47 1604.77 1000 1616C982.4 1613.47 970.308 1607.75 956 1600V1614H964C960.136 1627.12 951.936 1632.86 940 1638L916 1626C910.222 1593.78 900.136 1569.56 876 1556V1560C862.174 1586.78 891.584 1606.82 884 1628C875.8 1622.12 879.676 1621.76 868 1622V1634L874 1648C878.15 1652.45 878.834 1649.75 884 1654L880 1660H872L868 1654C858.104 1640.57 862.894 1615.65 858 1596C840.096 1592.48 843.816 1578.73 832 1570C814.97 1557.41 781.122 1550.67 754 1550V1552L758 1558C772 1563.95 828.774 1584.72 836 1596V1598L808 1588V1590C816.428 1600.76 821.882 1603.52 822 1624C808.368 1617.51 806.562 1595.58 792 1588C783.314 1583.48 767.122 1587.11 760 1582C766.31 1574.09 767.526 1579.74 764 1570L746 1556L750 1548C765.612 1530.42 833.562 1552.06 852 1558L858 1542C844.432 1541.14 821.652 1541.93 816 1532C830.932 1532.68 855.816 1535.38 862 1530L892 1486C905.75 1472.86 920.302 1465.42 932 1450Z" fill="#47A21D"/>
</g>
</svg>
