<svg width="703" height="1280" viewBox="0 0 703 1280" fill="none" xmlns="http://www.w3.org/2000/svg">
<g id="Number1">
<g id="Group">
<path id="Vector" d="M440.6 61.5001C400.5 78.2001 367.1 92.5001 366.4 93.2001C365.5 94.0001 362.8 108.7 359.4 130.5L353.8 166.5L335.8 205C212.7 467.9 130.8 635.1 58.7 770.4C44.7 796.7 40.9 804.6 41.7 805.9C42.6 807.5 50.9 813.7 65.7 824L72.8 829L80.7 827.4C85 826.5 89.3 825.4 90.2 824.9C94.2 822.8 141.4 736.2 185.4 650.2C224.7 573.4 300.1 417.4 342.3 325.2C345.6 318 348.4 312.1 348.6 312.3C348.7 312.4 348.2 323.8 347.4 337.5C343.9 401 338.8 508.8 332.9 644C332.3 658 331.7 669.6 331.6 669.7C331.5 669.8 328.7 668.8 325.4 667.5C287.9 652.3 244.9 664.7 215.5 699C206.3 709.7 200.9 718.1 194.5 731.5C180.6 760.3 174.1 791.9 174.1 829.5C174.2 861.4 179.1 882 192.8 907.8C199.7 920.9 209.2 933.2 223.5 947.6C239.9 964.1 248.4 971 283.4 996L309.2 1014.4L308.5 1021.5C306.3 1044.8 298.3 1096.6 292.9 1122.9C284 1166 271.5 1198.3 262.2 1202.2C260.7 1202.9 256.7 1206.1 253.3 1209.4L247 1215.4V1227.7V1240L254.2 1246C258.2 1249.3 262.4 1252 263.5 1252C267.4 1252 499.5 1197.8 500.8 1196.5C501.9 1195.5 502.7 1177.1 504.6 1110.4C505.9 1063.7 507 1022.1 507 1017.9V1010.3L524.8 997.2C534.5 990 546.3 981.2 551 977.8C606.8 936.3 630.9 900.8 637.4 850.2C639.4 835 639.4 823.7 637.4 804.6C634.4 774.9 628.9 754.1 618.5 732.5C612.1 719.2 605.3 709 596.2 699C581.5 682.9 565.4 672.6 545.3 666.6C539.5 664.8 520.5 662.6 518.4 663.4C517.5 663.8 517 663.2 517 661.7C517 658.2 528.8 228.7 529.5 209C529.8 199.4 530.7 166.3 531.5 135.5C532.3 104.7 533.2 71.8001 533.5 62.5001C533.9 53.1001 533.8 44.7001 533.5 43.7001C532.6 41.5001 517.4 31.0001 515.2 31.1001C514.3 31.1001 480.7 44.8001 440.6 61.5001ZM318 707.1C320.5 707.7 324.2 708.6 326.4 709.1L330.3 710.2L329.6 726.3C325.5 824.6 315.4 975 312.9 975C311.9 975 285.6 958.5 270.5 948.4C223.2 916.8 202.4 886.2 199.4 843.6C198.8 834.9 200.3 810.9 202 802.5C210.1 762.4 227.5 734.6 255.1 717.8C272.9 707 297.8 702.8 318 707.1ZM527.5 708.4C557.1 714.2 578.6 729.7 594.3 756.7C606.4 777.5 613 805 613 834.3C613 849.7 611.8 858.1 607.6 871.6C600.1 895.9 580.8 918.9 549.5 941.1C542 946.4 509.2 968 508.7 968C508.5 968 515.7 707.8 515.9 707.2C516.1 706.7 521 707.2 527.5 708.4Z" fill="black"/>
</g>
</g>
</svg>
